<?xml version="1.0" standalone="no"?>
<!DOCTYPE svg PUBLIC "-//W3C//DTD SVG 20010904//EN"
 "http://www.w3.org/TR/2001/REC-SVG-20010904/DTD/svg10.dtd">
<svg version="1.0" xmlns="http://www.w3.org/2000/svg"
 width="482.000000pt" height="304.000000pt" viewBox="0 0 482.000000 304.000000"
 preserveAspectRatio="xMidYMid meet">

<g transform="translate(0.000000,304.000000) scale(0.100000,-0.100000)"
fill="#000000" stroke="none">
<path d="M0 1520 l0 -1520 2410 0 2410 0 0 1520 0 1520 -2410 0 -2410 0 0
-1520z m1560 310 l0 -340 -490 0 -490 0 0 340 0 340 490 0 490 0 0 -340z
m2930 0 l0 -340 -490 0 -490 0 0 340 0 340 490 0 490 0 0 -340z m-1253 -137
l-137 -138 0 93 0 92 -710 0 -710 0 0 90 0 90 710 0 710 0 0 92 0 93 137 -138
138 -137 -138 -137z m-1677 -1023 l0 -340 -490 0 -490 0 0 340 0 340 490 0
490 0 0 -340z m2930 0 l0 -340 -490 0 -490 0 0 340 0 340 490 0 490 0 0 -340z
m-1253 -137 l-137 -138 0 93 0 92 -710 0 -710 0 0 90 0 90 710 0 710 0 0 92 0
93 137 -138 138 -137 -138 -137z"/>
<path d="M838 1873 c26 -5 25 -1 7 -52 -8 -22 -10 -41 -5 -41 6 0 40 81 40 97
0 2 -15 2 -32 2 -24 -1 -27 -3 -10 -6z"/>
<path d="M907 1874 c-14 -14 -7 -40 12 -40 12 0 18 7 17 20 -1 20 -17 31 -29
20z"/>
<path d="M978 1873 c26 -5 25 -1 7 -52 -8 -22 -10 -41 -5 -41 6 0 40 81 40 97
0 2 -15 2 -32 2 -24 -1 -27 -3 -10 -6z"/>
<path d="M1047 1874 c-14 -14 -7 -40 12 -40 12 0 18 7 17 20 -1 20 -17 31 -29
20z"/>
<path d="M1110 1856 c0 -16 7 -26 21 -29 27 -7 20 -29 -12 -39 -22 -6 -21 -7
6 -5 23 2 31 7 33 25 3 17 -2 25 -17 29 -28 7 -27 30 2 36 19 4 18 4 -5 6 -23
1 -28 -3 -28 -23z"/>
<path d="M1190 1870 c-10 -6 -11 -10 -2 -10 7 0 12 -14 12 -34 0 -19 -6 -37
-12 -39 -7 -3 3 -5 22 -5 19 0 27 2 18 5 -12 3 -18 17 -20 48 -2 37 -6 43 -18
35z"/>
<path d="M1265 1870 c-5 -9 -1 -10 13 -6 31 10 35 -9 7 -42 -32 -39 -32 -42 8
-41 25 1 27 3 9 6 l-24 5 22 23 c12 13 20 31 18 42 -4 21 -43 30 -53 13z"/>
<path d="M3720 1870 c-10 -6 -11 -10 -2 -10 7 0 12 -14 12 -34 0 -19 -6 -37
-12 -39 -7 -3 3 -5 22 -5 19 0 27 2 18 5 -12 3 -18 17 -20 48 -2 37 -6 43 -18
35z"/>
<path d="M3797 1874 c-14 -14 -7 -40 12 -40 12 0 18 7 17 20 -1 20 -17 31 -29
20z"/>
<path d="M3860 1870 c-10 -6 -11 -10 -2 -10 7 0 12 -14 12 -34 0 -19 -6 -37
-12 -39 -7 -3 3 -5 22 -5 19 0 27 2 18 5 -12 3 -18 17 -20 48 -2 37 -6 43 -18
35z"/>
<path d="M3937 1874 c-14 -14 -7 -40 12 -40 12 0 18 7 17 20 -1 20 -17 31 -29
20z"/>
<path d="M4000 1840 l-20 -40 25 0 c14 0 25 -6 25 -12 0 -10 2 -10 8 -1 10 16
3 93 -9 93 -5 0 -18 -18 -29 -40z m30 -10 c0 -11 -7 -20 -15 -20 -13 0 -14 4
-5 20 6 11 13 20 15 20 3 0 5 -9 5 -20z"/>
<path d="M4074 1867 c-3 -8 -4 -30 -2 -49 2 -25 8 -34 25 -36 24 -4 38 26 31
69 -4 28 -45 39 -54 16z m41 -17 c7 -23 -2 -60 -15 -60 -5 0 -12 9 -15 20 -7
23 2 60 15 60 5 0 12 -9 15 -20z"/>
<path d="M4157 1874 c-14 -15 -6 -46 13 -51 26 -7 25 -21 -2 -33 -23 -9 -23
-9 -2 -9 30 -1 46 22 42 61 -2 24 -8 34 -23 36 -12 2 -24 0 -28 -4z m36 -19
c8 -18 -11 -31 -25 -17 -11 11 -3 32 12 32 4 0 10 -7 13 -15z"/>
<path d="M4241 1866 c-7 -8 -11 -30 -9 -48 2 -28 7 -33 28 -33 35 0 36 46 1
55 -19 4 -21 7 -10 16 8 6 21 14 29 17 10 4 8 6 -6 6 -12 1 -27 -5 -33 -13z
m35 -47 c10 -17 -13 -36 -27 -22 -12 12 -4 33 11 33 5 0 12 -5 16 -11z"/>
<path d="M2671 1877 c-6 -6 -11 -31 -11 -56 0 -42 2 -46 25 -46 22 0 25 4 25
35 1 33 2 34 15 16 8 -11 17 -18 19 -15 3 2 -10 21 -28 41 -25 28 -36 34 -45
25z m29 -32 c0 -8 -7 -15 -15 -15 -8 0 -15 7 -15 15 0 8 7 15 15 15 8 0 15 -7
15 -15z m0 -40 c0 -8 -7 -15 -15 -15 -8 0 -15 7 -15 15 0 8 7 15 15 15 8 0 15
-7 15 -15z"/>
<path d="M2727 1884 c-15 -15 -7 -32 13 -27 18 5 20 0 20 -35 0 -30 -4 -42
-17 -45 -14 -4 -12 -5 5 -6 20 -1 22 3 22 49 0 36 -4 50 -14 50 -8 0 -16 5
-18 11 -2 5 -7 7 -11 3z"/>
<path d="M2824 1869 c-17 -19 -6 -27 12 -9 7 7 17 5 30 -6 18 -14 16 -15 -28
-11 -27 3 -48 1 -48 -4 0 -5 11 -9 25 -9 31 0 33 -17 3 -23 l-23 -4 23 -2 c31
-2 28 -19 -5 -24 -16 -2 1 -4 37 -4 36 0 50 2 33 4 -38 5 -44 20 -10 26 l22 4
-22 2 c-13 0 -23 6 -23 11 0 9 29 15 53 11 18 -3 3 16 -28 36 -33 21 -34 21
-51 2z"/>
<path d="M3091 1873 c-6 -10 -11 -12 -11 -5 0 6 -5 12 -11 12 -5 0 -7 -4 -4
-10 3 -5 0 -10 -7 -11 -7 0 -4 -4 7 -9 18 -8 18 -9 -5 -10 -14 -1 -19 -4 -12
-7 10 -4 10 -8 0 -21 -11 -13 -10 -15 5 -9 12 5 17 1 17 -13 0 -17 7 -20 40
-20 22 0 40 5 40 11 0 5 -4 7 -10 4 -5 -3 -10 1 -10 10 0 11 5 15 15 11 8 -3
15 -1 15 4 0 6 -6 10 -12 11 -7 0 -4 4 7 9 31 13 37 12 25 -9 -12 -24 -13 -34
-1 -26 5 3 12 -5 14 -17 4 -20 4 -19 6 5 0 15 6 27 12 27 8 0 8 5 -1 15 -10
12 -10 15 1 15 11 0 11 2 -1 10 -13 9 -13 11 0 20 12 7 8 10 -15 10 -23 0 -27
-3 -15 -10 13 -9 13 -11 0 -20 -8 -5 -31 -9 -50 -9 l-35 2 35 7 c19 4 29 8 22
9 -7 0 -10 6 -7 11 3 6 2 10 -4 10 -5 0 -13 -4 -16 -10 -10 -16 -25 -12 -19 5
8 21 -3 19 -15 -2z m22 -50 c-7 -2 -19 -2 -25 0 -7 3 -2 5 12 5 14 0 19 -2 13
-5z m7 -22 c0 -5 -7 -12 -16 -15 -22 -9 -24 -8 -24 9 0 8 9 15 20 15 11 0 20
-4 20 -9z"/>
<path d="M1778 1873 c26 -5 25 -1 7 -52 -8 -22 -10 -41 -5 -41 6 0 40 81 40
97 0 2 -15 2 -32 2 -24 -1 -27 -3 -10 -6z"/>
<path d="M1847 1874 c-14 -14 -7 -40 12 -40 12 0 18 7 17 20 -1 20 -17 31 -29
20z"/>
<path d="M1918 1873 c26 -5 25 -1 7 -52 -8 -22 -10 -41 -5 -41 6 0 40 81 40
97 0 2 -15 2 -32 2 -24 -1 -27 -3 -10 -6z"/>
<path d="M1987 1874 c-14 -14 -7 -40 12 -40 12 0 18 7 17 20 -1 20 -17 31 -29
20z"/>
<path d="M2050 1856 c0 -16 7 -26 21 -29 27 -7 20 -29 -12 -39 -22 -6 -21 -7
6 -5 23 2 31 7 33 25 3 17 -2 25 -17 29 -28 7 -27 30 2 36 19 4 18 4 -5 6 -23
1 -28 -3 -28 -23z"/>
<path d="M2130 1870 c-10 -6 -11 -10 -2 -10 7 0 12 -14 12 -34 0 -19 -6 -37
-12 -39 -7 -3 3 -5 22 -5 19 0 27 2 18 5 -12 3 -18 17 -20 48 -2 37 -6 43 -18
35z"/>
<path d="M2205 1870 c-5 -9 -1 -10 13 -6 31 10 35 -9 7 -42 -32 -39 -32 -42 8
-41 25 1 27 3 9 6 l-24 5 22 23 c12 13 20 31 18 42 -4 21 -43 30 -53 13z"/>
<path d="M2287 1874 c-14 -14 -7 -40 12 -40 12 0 18 7 17 20 -1 20 -17 31 -29
20z"/>
<path d="M2350 1840 l-20 -40 25 0 c14 0 25 -6 25 -12 0 -10 2 -10 8 -1 10 16
3 93 -9 93 -5 0 -18 -18 -29 -40z m30 -10 c0 -11 -7 -20 -15 -20 -13 0 -14 4
-5 20 6 11 13 20 15 20 3 0 5 -9 5 -20z"/>
<path d="M2424 1867 c-3 -8 -4 -30 -2 -49 2 -25 8 -34 25 -36 24 -4 38 26 31
69 -4 28 -45 39 -54 16z m41 -17 c7 -23 -2 -60 -15 -60 -13 0 -22 37 -15 60 3
11 10 20 15 20 5 0 12 -9 15 -20z"/>
<path d="M2507 1874 c-14 -15 -6 -46 13 -51 26 -7 25 -21 -2 -33 -23 -9 -23
-9 -2 -9 30 -1 46 22 42 61 -2 24 -8 34 -23 36 -12 2 -24 0 -28 -4z m36 -19
c8 -18 -11 -31 -25 -17 -11 11 -3 32 12 32 4 0 10 -7 13 -15z"/>
<path d="M2591 1866 c-7 -8 -11 -30 -9 -48 2 -28 7 -33 28 -33 35 0 36 46 1
55 -19 4 -21 7 -10 16 8 6 21 14 29 17 10 4 8 6 -6 6 -12 1 -27 -5 -33 -13z
m35 -47 c10 -17 -13 -36 -27 -22 -12 12 -4 33 11 33 5 0 12 -5 16 -11z"/>
<path d="M2927 1828 c-6 -60 0 -77 9 -30 6 29 10 32 45 32 35 0 39 -3 39 -24
0 -15 -7 -26 -17 -29 -14 -4 -12 -5 5 -6 20 -1 22 3 22 54 l0 55 -49 0 -48 0
-6 -52z m76 35 c-13 -2 -33 -2 -45 0 -13 2 -3 4 22 4 25 0 35 -2 23 -4z m0
-20 c-13 -2 -33 -2 -45 0 -13 2 -3 4 22 4 25 0 35 -2 23 -4z"/>
<path d="M3230 1848 c0 -30 3 -33 30 -33 27 0 30 3 30 33 0 29 -3 32 -30 32
-27 0 -30 -3 -30 -32z m50 2 c0 -13 -7 -20 -20 -20 -13 0 -20 7 -20 20 0 13 7
20 20 20 13 0 20 -7 20 -20z"/>
<path d="M2950 1802 c0 -15 6 -18 30 -14 17 2 30 10 30 18 0 9 -11 14 -30 14
-22 0 -30 -5 -30 -18z m43 1 c-7 -2 -19 -2 -25 0 -7 3 -2 5 12 5 14 0 19 -2
13 -5z"/>
<path d="M3220 1785 c-7 -8 -8 -15 -2 -15 5 0 15 7 22 15 7 8 8 15 2 15 -5 0
-15 -7 -22 -15z"/>
<path d="M3276 1785 c4 -8 11 -15 16 -15 6 0 5 6 -2 15 -7 8 -14 15 -16 15 -2
0 -1 -7 2 -15z"/>
<path d="M790 710 c-10 -6 -11 -10 -2 -10 16 0 16 -67 0 -73 -7 -3 3 -5 22 -5
19 0 27 2 18 5 -12 3 -18 17 -20 48 -2 37 -6 43 -18 35z"/>
<path d="M867 714 c-14 -14 -7 -40 12 -40 12 0 18 7 17 20 -1 20 -17 31 -29
20z"/>
<path d="M930 710 c-10 -6 -11 -10 -2 -10 16 0 16 -67 0 -73 -7 -3 3 -5 22 -5
19 0 27 2 18 5 -12 3 -18 17 -20 48 -2 37 -6 43 -18 35z"/>
<path d="M1007 714 c-14 -14 -7 -40 12 -40 12 0 18 7 17 20 -1 20 -17 31 -29
20z"/>
<path d="M1070 680 l-20 -40 25 0 c14 0 25 -6 25 -12 0 -10 2 -10 8 -1 10 16
3 93 -9 93 -5 0 -18 -18 -29 -40z m30 -10 c0 -11 -7 -20 -15 -20 -13 0 -14 4
-5 20 6 11 13 20 15 20 3 0 5 -9 5 -20z"/>
<path d="M1144 707 c-3 -8 -4 -30 -2 -49 2 -25 8 -34 25 -36 24 -4 38 26 31
69 -4 28 -45 39 -54 16z m41 -17 c7 -23 -2 -60 -15 -60 -13 0 -22 37 -15 60 3
11 10 20 15 20 5 0 12 -9 15 -20z"/>
<path d="M1227 714 c-14 -15 -6 -46 13 -51 26 -7 25 -21 -2 -33 -23 -9 -23 -9
-2 -9 30 -1 46 22 42 61 -2 24 -8 34 -23 36 -12 2 -24 0 -28 -4z m36 -19 c8
-18 -11 -31 -25 -17 -11 11 -3 32 12 32 4 0 10 -7 13 -15z"/>
<path d="M1311 706 c-7 -8 -11 -30 -9 -48 2 -28 7 -33 28 -33 35 0 36 46 1 55
-19 4 -21 7 -10 16 8 6 21 14 29 17 10 4 8 6 -6 6 -12 1 -27 -5 -33 -13z m35
-47 c10 -17 -13 -36 -27 -22 -12 12 -4 33 11 33 5 0 12 -5 16 -11z"/>
<path d="M3720 710 c-10 -6 -11 -10 -2 -10 7 0 12 -14 12 -34 0 -19 -6 -37
-12 -39 -7 -3 3 -5 22 -5 19 0 27 2 18 5 -12 3 -18 17 -20 48 -2 37 -6 43 -18
35z"/>
<path d="M3797 714 c-14 -14 -7 -40 12 -40 12 0 18 7 17 20 -1 20 -17 31 -29
20z"/>
<path d="M3860 710 c-10 -6 -11 -10 -2 -10 7 0 12 -14 12 -34 0 -19 -6 -37
-12 -39 -7 -3 3 -5 22 -5 19 0 27 2 18 5 -12 3 -18 17 -20 48 -2 37 -6 43 -18
35z"/>
<path d="M3937 714 c-14 -14 -7 -40 12 -40 12 0 18 7 17 20 -1 20 -17 31 -29
20z"/>
<path d="M3995 710 c-5 -9 -1 -10 13 -6 31 10 35 -9 7 -42 -32 -39 -32 -42 8
-41 25 1 27 3 9 6 l-24 5 22 23 c12 13 20 31 18 42 -4 21 -43 30 -53 13z"/>
<path d="M4074 707 c-3 -8 -4 -30 -2 -49 2 -25 8 -34 25 -36 24 -4 38 26 31
69 -4 28 -45 39 -54 16z m41 -17 c7 -23 -2 -60 -15 -60 -5 0 -12 9 -15 20 -7
23 2 60 15 60 5 0 12 -9 15 -20z"/>
<path d="M4160 680 l-20 -40 25 0 c14 0 25 -6 25 -12 0 -10 2 -10 8 -1 10 16
3 93 -9 93 -5 0 -18 -18 -29 -40z m30 -10 c0 -11 -7 -20 -15 -20 -13 0 -14 4
-5 20 6 11 13 20 15 20 3 0 5 -9 5 -20z"/>
<path d="M4236 708 c-3 -7 -4 -29 -3 -48 2 -30 5 -35 27 -35 23 0 25 4 25 45
0 39 -3 45 -23 48 -12 2 -24 -3 -26 -10z m39 -7 c7 -12 -12 -24 -25 -16 -11 7
-4 25 10 25 5 0 11 -4 15 -9z m0 -50 c7 -12 -12 -24 -25 -16 -11 7 -4 25 10
25 5 0 11 -4 15 -9z"/>
<path d="M2060 710 c-10 -6 -11 -10 -2 -10 7 0 12 -14 12 -34 0 -19 -6 -37
-12 -39 -7 -3 3 -5 22 -5 19 0 27 2 18 5 -12 3 -18 17 -20 48 -2 37 -6 43 -18
35z"/>
<path d="M2137 714 c-14 -14 -7 -40 12 -40 12 0 18 7 17 20 -1 20 -17 31 -29
20z"/>
<path d="M2200 710 c-10 -6 -11 -10 -2 -10 7 0 12 -14 12 -34 0 -19 -6 -37
-12 -39 -7 -3 3 -5 22 -5 19 0 27 2 18 5 -12 3 -18 17 -20 48 -2 37 -6 43 -18
35z"/>
<path d="M2277 714 c-14 -14 -7 -40 12 -40 12 0 18 7 17 20 -1 20 -17 31 -29
20z"/>
<path d="M2340 680 l-20 -40 25 0 c14 0 25 -6 25 -12 0 -10 2 -10 8 -1 10 16
3 93 -9 93 -5 0 -18 -18 -29 -40z m30 -10 c0 -11 -7 -20 -15 -20 -13 0 -14 4
-5 20 6 11 13 20 15 20 3 0 5 -9 5 -20z"/>
<path d="M2414 707 c-3 -8 -4 -30 -2 -49 2 -25 8 -34 25 -36 24 -4 38 26 31
69 -4 28 -45 39 -54 16z m41 -17 c7 -23 -2 -60 -15 -60 -13 0 -22 37 -15 60 3
11 10 20 15 20 5 0 12 -9 15 -20z"/>
<path d="M2497 714 c-14 -15 -6 -46 13 -51 26 -7 25 -21 -2 -33 -23 -9 -23 -9
-2 -9 30 -1 46 22 42 61 -2 24 -8 34 -23 36 -12 2 -24 0 -28 -4z m36 -19 c8
-18 -11 -31 -25 -17 -11 11 -3 32 12 32 4 0 10 -7 13 -15z"/>
<path d="M2581 706 c-7 -8 -11 -30 -9 -48 2 -28 7 -33 28 -33 35 0 36 46 1 55
-19 4 -21 7 -10 16 8 6 21 14 29 17 10 4 8 6 -6 6 -12 1 -27 -5 -33 -13z m35
-47 c10 -17 -13 -36 -27 -22 -12 12 -4 33 11 33 5 0 12 -5 16 -11z"/>
<path d="M2657 714 c-14 -14 -7 -40 12 -40 12 0 18 7 17 20 -1 20 -17 31 -29
20z"/>
<path d="M2715 710 c-5 -9 -1 -10 13 -6 31 10 35 -9 7 -42 -32 -39 -32 -42 8
-41 25 1 27 3 9 6 l-24 5 22 23 c12 13 20 31 18 42 -4 21 -43 30 -53 13z"/>
<path d="M2794 707 c-3 -8 -4 -30 -2 -49 2 -25 8 -34 25 -36 24 -4 38 26 31
69 -4 28 -45 39 -54 16z m41 -17 c7 -23 -2 -60 -15 -60 -5 0 -12 9 -15 20 -7
23 2 60 15 60 5 0 12 -9 15 -20z"/>
<path d="M2880 680 l-20 -40 25 0 c14 0 25 -6 25 -12 0 -10 2 -10 8 -1 10 16
3 93 -9 93 -5 0 -18 -18 -29 -40z m30 -10 c0 -11 -7 -20 -15 -20 -13 0 -14 4
-5 20 6 11 13 20 15 20 3 0 5 -9 5 -20z"/>
<path d="M2956 708 c-3 -7 -4 -29 -3 -48 2 -30 5 -35 27 -35 23 0 25 4 25 45
0 39 -3 45 -23 48 -12 2 -24 -3 -26 -10z m39 -7 c7 -12 -12 -24 -25 -16 -11 7
-4 25 10 25 5 0 11 -4 15 -9z m0 -50 c7 -12 -12 -24 -25 -16 -11 7 -4 25 10
25 5 0 11 -4 15 -9z"/>
</g>
</svg>
